# xmcd
#
# Track frame offsets:
#	150
#	7190
#	18017
#	33727
#	48447
#	59868
#	67306
#	80773
#	93163
#	102813
#	114416
#	126229
#	135004
#	143341
#	151721
#	160466
#	170861
#	178818
#
# Disc length: 2499 seconds
#
# Revision: 1
# Processed by: cddbd v1.4PL0 Copyright (c) Steve Scherf et al.
# Submitted via: EasyCDDAExtractor 6.2.0.3
#
DISCID=f509c112
DTITLE=Jim Reeves - Love Letters 
DYEAR=1900
DGENRE=
TTITLE0=Have I Told You Lately
TTITLE1=Dear Hearts And Gentle People
TTITLE2=Making Believe
TTITLE3=Highway To Nowhere
TTITLE4=I Love You More
TTITLE5=I'm Beginning To Forget You
TTITLE6=How's The Worls Treating You
TTITLE7=Your Old Love Letters
TTITLE8=Wind Up Doll
TTITLE9=Just Call Me Lonesome
TTITLE10=If Heatache Is The Fasion
TTITLE11=Everywhere You Go
TTITLE12=Roly Poly
TTITLE13=Till The End Of The World
TTITLE14=Sweey Evening Breeze
TTITLE15=Home 
TTITLE16=Oklahoma Hills
TTITLE17=If You Were Minw
EXTD=
EXTT0=
EXTT1=
EXTT2=
EXTT3=
EXTT4=
EXTT5=
EXTT6=
EXTT7=
EXTT8=
EXTT9=
EXTT10=
EXTT11=
EXTT12=
EXTT13=
EXTT14=
EXTT15=
EXTT16=
EXTT17=
PLAYORDER=
